<?xml version="1.0" encoding="UTF-8"?>
<svg id="Calque_1" xmlns="http://www.w3.org/2000/svg" version="1.1" viewBox="0 0 5081 1618">
  <!-- Generator: Adobe Illustrator 29.6.1, SVG Export Plug-In . SVG Version: 2.1.1 Build 9)  -->
  <defs>
    <style>
      .st0 {
        fill: #deddda;
      }

      .st1 {
        fill: #dcdcd9;
      }
    </style>
  </defs>
  <path class="st0" d="M755.85,934h-108.98l-92.99-158.99c-1.28-1.24-5.97-5.01-6.99-5.01h-92.98v164h-99.98v-440l219.04-.08c70.09,5.94,143.51,28.42,160.29,105.68,12.13,55.84-8.33,109.45-55.52,141.28-6.63,4.47-24.44,8.67-23.88,17.94l102,175.19ZM453.91,694h122.98c4.39,0,20.07-4.98,24.97-7.03,50.53-21.12,44.04-96.43-10.37-111.58-20.67-5.75-101.65-6.17-124.62-3.43-4.54.54-12.96,4.03-12.96,9.04v113Z"/>
  <path class="st0" d="M873.83,496v358h225.96v80h-325.94v-435c0-.21,2.79-3,3-3h96.98Z"/>
  <path class="st1" d="M739.31,104.45h11.07c147.59,109.8,290.04,227.61,436.35,339.58,22.21,22.54-9.03,46.88-30.84,28.84-134.51-107.04-271.79-210.58-406.09-317.84l-9.89.04-441.34,318.58c-18.92,15.56-48-3.65-33.55-25.56,156.4-116.29,315.21-230.9,474.27-343.64Z"/>
  <path class="st1" d="M819.84,1104v-131c0-.21,2.79-3,3-3h44.99v216h-42.99c-.78,0-9.55-9.25-11-11-10.15-12.19-20.04-27.9-29.98-40.01-20.99-25.58-43.81-49.75-63.89-76.1-2.26-5.64-10.1-.09-10.1,2.11v125h-47.99v-216h44.99l106.97,131.01,6.01,2.99Z"/>
  <path class="st1" d="M523.9,970v31c0,7.76-84.95,105.18-96.78,121.2-5.38,7.28-12.82,14.07-11.19,23.8h111.98v40h-183.96v-35c33.71-44.64,75.44-86.94,107.9-132.08,2.34-3.26,6.1-6.73,6.08-10.92h-111.98v-38h177.96Z"/>
  <path class="st1" d="M1113.4,996.35c4.17,7.13-24,31.03-28.73,31.72-7.8,1.14-12.87-8.01-19.83-12.12-19.63-11.62-55.48-11.67-74.04,2.06-64,47.36-21.31,157.88,64.94,126.96,25.65-9.2,21.85-26.82,48.98-.9,10.98,10.49,13.39,13.12.05,23.94-88.42,71.72-242.63-14.99-185.34-139.38,27.6-59.92,116.43-78.47,170.96-48.22,2.98,1.65,22.3,14.75,23,15.96Z"/>
  <path class="st1" d="M721.34,270.48c47.47-7.44,101.88,11.99,115.09,61.93,26.31,99.44-112.26,150.77-172.56,68.59-35.3-48.11.69-121.62,57.47-130.52ZM817.84,350c-3.59-32.59-33.29-57.67-64.96-62.03-1.09,20.62,2.25,41.21-1.03,62.03h65.99ZM737.85,350v-55c0-3.96-8.62-5.35-12.49-4.6-25.42,4.94-52.9,32.12-51.5,59.6h63.99ZM737.85,420v-57c0-.21-2.79-3-3-3h-60.99c-.64,30.23,33.46,62.88,63.99,60ZM815.84,360h-63.99v57c0,8.4,24.28-1.13,28.65-3.35,19.72-10.01,34.62-31.45,35.34-53.65Z"/>
  <path class="st1" d="M613.88,970v216h-46.99c-.21,0-3-2.79-3-3v-210c0-.21,2.79-3,3-3h46.99Z"/>
  <path class="st1" d="M525.9,164v71c0,4.09-11.8,11.81-15.36,14.64-13.99,11.11-47.19,36.74-61.57,44.41-2.42,1.29-3.78,2.71-7.05,1.95v-132h83.98Z"/>
</svg>