<?xml version="1.0" encoding="UTF-8"?>
<svg id="Calque_1" xmlns="http://www.w3.org/2000/svg" version="1.1" viewBox="0 0 5081 1618">
  <!-- Generator: Adobe Illustrator 29.6.1, SVG Export Plug-In . SVG Version: 2.1.1 Build 9)  -->
  <defs>
    <style>
      .st0 {
        fill: #C8A45C;
      }
    </style>
  </defs>
  <path class="st0" d="M755.85,934h-108.98l-92.99-158.99c-1.28-1.24-5.97-5.01-6.99-5.01h-92.98v164h-99.98v-440l219.04-.08c70.09,5.94,143.51,28.42,160.29,105.68,12.13,55.84-8.33,109.45-55.52,141.28-6.63,4.47-24.44,8.67-23.88,17.94l102,175.19ZM453.91,694h122.98c4.39,0,20.07-4.98,24.97-7.03,50.53-21.12,44.04-96.43-10.37-111.58-20.67-5.75-101.65-6.17-124.62-3.43-4.54.54-12.96,4.03-12.96,9.04v113Z"/>
  <path class="st0" d="M873.83,496v358h225.96v80h-325.94v-435c0-.21,2.79-3,3-3h96.98Z"/>
  <path class="st0" d="M739.31,104.45h11.07c147.59,109.8,290.04,227.61,436.35,339.58,22.21,22.54-9.03,46.88-30.84,28.84-134.51-107.04-271.79-210.58-406.09-317.84l-9.89.04-441.34,318.58c-18.92,15.56-48-3.65-33.55-25.56,156.4-116.29,315.21-230.9,474.27-343.64Z"/>
  <polygon class="st0" points="1611.68 856 1655.67 1066 1655.67 856 1711.66 856 1711.66 1156 1621.68 1156 1569.69 912 1569.69 1156 1513.7 1156 1513.7 856 1611.68 856"/>
  <polygon class="st0" points="2499.51 500 2543.5 710 2543.5 500 2599.49 500 2599.49 800 2509.51 800 2457.52 556 2457.52 800 2401.53 800 2401.53 500 2499.51 500"/>
  <polygon class="st0" points="1541.7 500 1541.7 612 1577.69 612 1577.69 500 1647.68 500 1647.68 800 1577.69 800 1577.69 658 1541.7 658 1541.7 800 1471.71 800 1471.71 500 1541.7 500"/>
  <path class="st0" d="M2269.55,856c39.97,3.52,129.69-10.43,160.04,18.93,25.94,25.1,22.48,97.57-14.71,113.43l-19.34,7.62c28.54-1.94,47.59,14.5,50.05,42.95,3.35,38.79-7.05,80.24,9.93,117.07h-68.99c-2.38,0-6.82-13.56-7.59-16.41-7.89-28.91-.7-63.08-3.32-92.68-1.93-21.72-14.75-29.84-36.07-26.92v136h-69.99v-300ZM2339.54,900v76c36.38,3.8,38.29-19.46,36.08-49.08-1.83-24.51-13-27.94-36.08-26.92Z"/>
  <path class="st0" d="M4539.11,500c41.88,2.59,91.03-5.49,131.53,5.44,56.47,15.23,58.72,94.86,15.82,124.94l-21.37,9.6c32.48-1.5,47.65,18.43,50.05,48.95,2.91,36.94-6.51,75.71,7.93,111.07h-66.99c-15.81,0-9.84-92.44-10.93-105.07-1.99-23.08-11.86-33.7-36.06-30.93v136h-69.99v-300ZM4609.09,620c31.86,2.68,37.33-15.37,36.08-43.1-1.12-24.84-10.11-35.19-36.08-32.9v76Z"/>
  <path class="st0" d="M3979.22,500c41.88,2.59,91.03-5.49,131.53,5.44,56.47,15.23,58.72,94.86,15.82,124.94l-21.37,9.6c32.48-1.5,47.65,18.43,50.05,48.95,2.91,36.94-6.51,75.71,7.93,111.07h-66.99c-15.81,0-9.84-92.44-10.93-105.07-1.99-23.08-11.86-33.7-36.06-30.93v136h-69.99v-300ZM4049.2,620c31.86,2.68,37.33-15.37,36.08-43.1-1.12-24.84-10.11-35.19-36.08-32.9v76Z"/>
  <path class="st0" d="M1859.63,500c41.88,2.59,91.03-5.49,131.53,5.44,56.47,15.23,58.72,94.86,15.82,124.94l-21.37,9.6c32.48-1.5,47.65,18.43,50.05,48.95,2.91,36.94-6.51,75.71,7.93,111.07h-66.99c-15.81,0-9.84-92.44-10.93-105.07-1.99-23.08-11.86-33.7-36.06-30.93v136h-69.99v-300ZM1929.62,620c31.86,2.68,37.33-15.37,36.08-43.1-1.12-24.84-10.11-35.19-36.08-32.9v76Z"/>
  <path class="st0" d="M3314.93,494.59c50.32-5.12,97.28,15.19,102.36,70.45,3.97,43.15,3.55,124.53.1,168.04-7.83,98.95-167.16,98.16-176.01,1.9-3.97-43.15-3.55-124.53-.1-168.04,3.4-42.98,31.83-68.09,73.64-72.34ZM3326.87,542.37c-9.61,1.18-15.09,9.39-15.52,18.64,3.96,56.61-5.28,120.33-.08,176.08,2.62,28.1,33.23,27.19,36.07,1.92-3.96-56.61,5.28-120.32.08-176.08-1.13-12.14-6.56-22.27-20.55-20.56Z"/>
  <path class="st0" d="M1991.61,856l.02,224.98c2.86,12.3-.25,31.82,17.1,32.95,19.01,1.24,19.11-19.59,20.85-32.95l.02-224.98h69.99v225c0,6.32-4.42,26.63-6.57,33.42-13.1,41.4-55.18,50.61-94.37,47.54-45.08-3.52-77.02-31.73-77.02-78.97v-227h69.99Z"/>
  <path class="st0" d="M3505.31,500v241c0,.95,4.69,10.85,5.89,12.11,10.35,10.8,30.1,1.16,30.1-12.11v-241h69.99v235c0,5.21-5.37,22.62-7.64,28.36-26.71,67.8-168.33,54.53-168.33-26.36v-237h69.99Z"/>
  <path class="st0" d="M4415.13,500v241c0,.95,4.69,10.85,5.89,12.11,10.35,10.8,30.1,1.16,30.1-12.11v-241h69.99v235c0,5.21-5.37,22.62-7.64,28.36-26.71,67.8-168.33,54.53-168.33-26.36v-237h69.99Z"/>
  <path class="st0" d="M1903.63,964h-69.99v-51c0-14.47-33.35-27.32-36.08,7.92-4.41,56.97,3.07,120.02.56,177.61,4.24,23.62,35.52,15.7,35.52.47v-49h-25.99v-43c0-.21,2.79-3,3-3h92.98v152h-38.99c-3.11,0-3.41-12.08-5.99-13.99-28.84,26.45-95.46,29.57-118.65-5.34-27.03-40.69-5.19-166.09-12.09-217.42,3.91-68.48,94.68-85.48,144.38-56.9,13.4,7.71,31.34,33.27,31.34,48.65v53Z"/>
  <path class="st0" d="M3223.37,608h-69.99v-45c0-11.75-10.09-22.65-22.48-20.65-13.98,2.25-14.82,17.07-15.6,28.56-3,44.28-3.4,116.15.02,160.16.55,7.09,1.67,18.05,7.35,22.64,13.1,10.58,30.71-.67,30.71-16.71v-55h66.99c.21,0,3,2.79,3,3v50c0,43.34-37.81,67.91-77.02,70.97-60.46,4.72-97.2-21.21-101.04-82.87-2.65-42.54-3.06-107.8.12-150.07,4.61-61.27,44.97-83.16,102.93-79,39.64,2.85,75.01,25.12,75.01,68.97v45Z"/>
  <path class="st0" d="M1453.71,608h-69.99v-45c0-11.75-10.09-22.65-22.48-20.65-13.98,2.25-14.82,17.07-15.6,28.56-3,44.28-3.4,116.15.02,160.16.55,7.09,1.67,18.05,7.35,22.64,13.1,10.58,30.71-.67,30.71-16.71v-55h66.99c.21,0,3,2.79,3,3v50c0,43.34-37.81,67.91-77.02,70.97-60.46,4.72-97.2-21.21-101.04-82.87-2.65-42.54-3.06-107.8.12-150.07,4.61-61.27,44.97-83.16,102.93-79,39.64,2.85,75.01,25.12,75.01,68.97v45Z"/>
  <path class="st0" d="M1661.67,800l51.13-300.05,96.86.03,37.98,300.01h-69.99l-9.13-74.08-36.87.07-9.99,74.01h-59.99ZM1765.65,679.99l-13.97-131.98-12.03,132,26-.02Z"/>
  <polygon class="st0" points="3699.27 500 3716.27 726.02 3748.26 500 3811.25 500 3761.4 799.14 3669.27 800.01 3625.29 500 3699.27 500"/>
  <path class="st0" d="M2125.58,684v116h-69.99v-300h104.98c6.05,0,23.43,4,30.05,5.94,15.05,4.4,29.37,13.12,35.94,28.06,6.98,15.89,7.06,76.16,5.01,95.02-3.01,27.69-36.17,54.99-63,54.99h-42.99ZM2125.58,642c9.98.56,26.02.35,31.75-9.24,6.29-10.53,6.15-65.21,1.24-76.75-6.31-14.83-19.47-12.12-32.99-12v98Z"/>
  <path class="st0" d="M4879.04,500v46h-75.99v63c0,.21,2.79,3,3,3h68.99v46h-71.99v96h75.99v46h-145.97v-300h145.97Z"/>
  <path class="st0" d="M2937.42,500v46h-75.99v63c0,.21,2.79,3,3,3h68.99v46h-71.99v96h75.99v46h-145.97v-300h145.97Z"/>
  <polygon class="st0" points="3967.22 500 3967.22 546 3893.23 546 3893.23 612 3965.22 612 3965.22 656 3893.23 656 3893.23 754 3967.22 754 3967.22 800 3823.25 800 3823.25 500 3967.22 500"/>
  <polygon class="st0" points="2259.56 856 2259.56 902 2185.57 902 2185.57 968 2257.56 968 2257.56 1012 2185.57 1012 2185.57 1110 2259.56 1110 2259.56 1156 2115.58 1156 2115.58 856 2259.56 856"/>
  <polygon class="st0" points="2695.47 856 2695.47 902 2621.48 902 2621.48 968 2693.47 968 2693.47 1012 2621.48 1012 2621.48 1110 2695.47 1110 2695.47 1156 2551.5 1156 2551.5 856 2695.47 856"/>
  <polygon class="st0" points="2393.53 500 2393.53 546 2319.54 546 2319.54 612 2391.53 612 2391.53 656 2319.54 656 2319.54 754 2393.53 754 2393.53 800 2249.56 800 2249.56 500 2393.53 500"/>
  <polygon class="st0" points="1419.72 856 1419.72 905 1339.74 1110 1419.72 1110 1419.72 1156 1269.75 1156 1269.75 1101 1345.74 902 1269.75 902 1269.75 856 1419.72 856"/>
  <path class="st0" d="M819.84,1104v-131c0-.21,2.79-3,3-3h44.99v216h-42.99c-.78,0-9.55-9.25-11-11-10.15-12.19-20.04-27.9-29.98-40.01-20.99-25.58-43.81-49.75-63.89-76.1-2.26-5.64-10.1-.09-10.1,2.11v125h-47.99v-216h44.99l106.97,131.01,6.01,2.99Z"/>
  <polygon class="st0" points="4331.15 500 4331.15 546 4281.16 546 4281.16 800 4211.17 800 4211.17 546 4163.18 546 4163.18 500 4331.15 500"/>
  <polygon class="st0" points="2779.45 500 2779.45 546 2729.46 546 2729.46 800 2659.48 800 2659.48 546 2611.49 546 2611.49 500 2779.45 500"/>
  <path class="st0" d="M523.9,970v31c0,7.76-84.95,105.18-96.78,121.2-5.38,7.28-12.82,14.07-11.19,23.8h111.98v40h-183.96v-35c33.71-44.64,75.44-86.94,107.9-132.08,2.34-3.26,6.1-6.73,6.08-10.92h-111.98v-38h177.96Z"/>
  <rect class="st0" x="1431.72" y="856" width="69.99" height="300"/>
  <rect class="st0" x="2465.51" y="856" width="69.99" height="300"/>
  <path class="st0" d="M1113.4,996.35c4.17,7.13-24,31.03-28.73,31.72-7.8,1.14-12.87-8.01-19.83-12.12-19.63-11.62-55.48-11.67-74.04,2.06-64,47.36-21.31,157.88,64.94,126.96,25.65-9.2,21.85-26.82,48.98-.9,10.98,10.49,13.39,13.12.05,23.94-88.42,71.72-242.63-14.99-185.34-139.38,27.6-59.92,116.43-78.47,170.96-48.22,2.98,1.65,22.3,14.75,23,15.96Z"/>
  <path class="st0" d="M721.34,270.48c47.47-7.44,101.88,11.99,115.09,61.93,26.31,99.44-112.26,150.77-172.56,68.59-35.3-48.11.69-121.62,57.47-130.52ZM817.84,350c-3.59-32.59-33.29-57.67-64.96-62.03-1.09,20.62,2.25,41.21-1.03,62.03h65.99ZM737.85,350v-55c0-3.96-8.62-5.35-12.49-4.6-25.42,4.94-52.9,32.12-51.5,59.6h63.99ZM737.85,420v-57c0-.21-2.79-3-3-3h-60.99c-.64,30.23,33.46,62.88,63.99,60ZM815.84,360h-63.99v57c0,8.4,24.28-1.13,28.65-3.35,19.72-10.01,34.62-31.45,35.34-53.65Z"/>
  <path class="st0" d="M613.88,970v216h-46.99c-.21,0-3-2.79-3-3v-210c0-.21,2.79-3,3-3h46.99Z"/>
  <path class="st0" d="M525.9,164v71c0,4.09-11.8,11.81-15.36,14.64-13.99,11.11-47.19,36.74-61.57,44.41-2.42,1.29-3.78,2.71-7.05,1.95v-132h83.98Z"/>
</svg>